<svg width="144" height="44" xmlns="http://www.w3.org/2000/svg" xmlns:xlink="http://www.w3.org/1999/xlink" xml:space="preserve" overflow="hidden"><defs><clipPath id="clip0"><rect x="0" y="0" width="144" height="44"/></clipPath></defs><g clip-path="url(#clip0)"><path d="M5.66157 41.0996C4.2023 41.0996 3.18243 40.7985 2.60195 40.1964 2.02147 39.5942 1.73272 38.5984 1.7357 37.2088L1.7357 19.0041C1.67973 18.1529 1.98925 17.3182 2.58665 16.7093 3.15489 16.1758 3.91098 15.8885 4.69014 15.91L11.3257 15.91 12.1945 20.6002 7.36412 20.6002C7.06281 20.6002 6.91219 20.7623 6.91219 21.0865L6.91219 35.9231C6.91219 36.2474 7.06281 36.4095 7.36412 36.4095L12.1932 36.4095 11.29 41.0996 5.66157 41.0996ZM18.9677 20.3242 18.9677 29.0096 21.4345 29.0096C21.7588 29.0096 21.9209 28.8358 21.9209 28.4882L21.9209 20.8437C21.9209 20.4961 21.7588 20.3222 21.4345 20.3222ZM26.8889 30.8512C26.887 31.4133 26.6834 31.9561 26.3153 32.381 25.8924 32.8621 25.2696 33.1189 24.6306 33.0758L27.2708 41.1009 22.0599 41.1009 19.6281 33.0758 18.9677 33.0758 18.9677 41.1009 13.9321 41.1009 13.9321 15.9119 23.4838 15.9119C24.433 15.8277 25.3734 16.1496 26.0718 16.7979 26.6405 17.4562 26.933 18.3087 26.8883 19.1774ZM38.3185 41.0996 33.0031 41.0996 33.0031 34.7076 28.174 15.9119 33.3849 15.9119 35.6433 27.7915 37.938 15.91 43.1489 15.91 38.3185 34.7076ZM49.5371 20.3242 49.5371 30.2258 52.0384 30.2258C52.247 30.2258 52.3802 30.1852 52.438 30.1041 52.506 29.9825 52.5362 29.8433 52.5247 29.7044L52.5247 20.8105C52.5247 20.4862 52.3741 20.3242 52.0728 20.3242L49.5403 20.3242ZM54.4357 15.9119C55.2686 15.8487 56.0873 16.1534 56.6762 16.7457 57.197 17.3659 57.4639 18.1602 57.4233 18.969L57.4233 31.0245C57.4277 31.4755 57.3752 31.9253 57.2671 32.3631 57.1679 32.7588 56.9706 33.1232 56.6935 33.4225 56.3844 33.7436 56.004 33.9873 55.5831 34.1339 55.0241 34.3228 54.436 34.411 53.8461 34.3946L49.5403 34.3946 49.5403 41.0996 44.5372 41.0996 44.5372 15.9119ZM69.4438 15.9119 70.6944 20.6021 67.3244 20.6021 67.3244 41.0996 62.1861 41.0996 62.1861 20.6021 58.8161 20.6021 60.1362 15.9119 69.447 15.9119ZM77.6079 20.3242C77.3064 20.3242 77.1559 20.4862 77.1559 20.8105L77.1559 36.166C77.1445 36.3049 77.1744 36.444 77.2426 36.5656 77.3006 36.6468 77.4338 36.6874 77.6423 36.6874L79.5545 36.6874C79.763 36.6874 79.8962 36.6468 79.9542 36.5656 80.0224 36.444 80.0524 36.3049 80.0409 36.166L80.0409 20.8105C80.0409 20.4862 79.8905 20.3242 79.589 20.3242ZM85.1466 37.5211C85.1498 37.9843 85.0912 38.4457 84.9726 38.8935 84.863 39.3095 84.6609 39.6954 84.3817 40.0224 84.077 40.3657 83.6965 40.6333 83.2701 40.8038 82.7168 41.0168 82.1259 41.1171 81.5331 41.099L75.7001 41.099C75.1073 41.1171 74.5164 41.0168 73.9631 40.8038 73.5367 40.6333 73.1561 40.3657 72.8514 40.0224 72.5722 39.6954 72.3702 39.3095 72.2605 38.8935 72.142 38.4457 72.0833 37.9843 72.0865 37.5211L72.0865 19.1781C72.0419 18.3093 72.3345 17.4568 72.9031 16.7986 73.6017 16.1503 74.5419 15.8283 75.491 15.9126L81.7447 15.9126C82.6938 15.8283 83.634 16.1503 84.3326 16.7986 84.9012 17.4568 85.1938 18.3093 85.1492 19.1781L85.1492 37.5211ZM96.8548 27.9675 100.433 41.0983 95.3262 41.0983 93.3821 32.2407 91.4698 41.1009 86.3628 41.1009 89.9413 27.97 86.4992 15.9145 91.5017 15.9145 93.3776 24.7746 95.3231 15.9145 100.291 15.9145Z" fill="#648AF2" transform="matrix(1.00364 0 0 1 43.1983 -6.61285)"/><path d="M17.807 31.2884C23.916 31.2884 27.7648 33.1924 29.3532 37.0004 29.6806 37.5791 29.9069 38.2094 30.0225 38.8642L26.1763 38.8642 26.1763 40.0249 30.3004 40.0249 30.3004 39.9612C30.2601 39.5838 30.1676 39.2137 30.0257 38.8616L37.0819 38.8616 37.0819 40.0224 30.3916 40.0224 30.3916 40.1141C30.7537 41.8574 30.9986 43.623 31.1246 45.399 31.1246 45.501 28.4474 45.6943 23.0931 45.9791L23.0931 45.9153C23.0931 41.0484 21.4233 38.6149 18.0836 38.6149L17.2263 38.6149C14.7217 38.6149 13.1944 39.6739 12.6445 41.7918 12.1429 44.1092 11.9174 46.4777 11.9727 48.8481L11.9727 54.8048 11.9089 55.6908 9.13169 55.6908 9.13169 57.0931 11.9115 57.0931 11.9115 67.6928 23.7038 67.6928 23.7038 56.6654 30.4528 56.6654 30.4528 67.6928 26.6952 67.6928 26.6952 74.4743 18.8453 74.4743 18.8453 75.055 12.7363 75.055 12.7363 74.4743 6.53547 74.4743 6.53547 71.0839 10.6596 71.0839 10.6596 69.6178 4.48872 69.6178 4.48872 64.6083 1.83131 64.6083 1.83131 58.4381 3.23363 58.4381C3.17414 55.8761 3.1444 53.862 3.1444 52.396 3.1444 45.737 3.47012 41.5422 4.12156 39.8114 4.67423 37.8816 5.67945 36.1115 7.0537 34.6483 9.47589 32.4084 13.0599 31.2884 17.8057 31.2884ZM12.4934 65.4994 12.86 65.4994 12.86 67.0292 13.746 67.0292 13.746 67.4875 12.4934 67.4875C12.4119 67.4875 12.3711 67.4365 12.3711 67.3346L12.3711 65.6543C12.3711 65.5523 12.4119 65.5013 12.4934 65.5013ZM21.6876 65.4994 22.1459 65.4994C22.3471 65.6301 22.4811 65.8424 22.5124 66.0801 22.7129 65.9131 22.888 65.7174 23.0319 65.4994L23.3984 65.4994 23.3984 65.6543C23.1447 65.9188 22.9654 66.2452 22.8789 66.6015 22.9401 66.6015 23.1337 66.8661 23.4596 67.3958L23.4596 67.4875 23.03 67.4875 22.5105 66.9068C22.3274 67.253 22.1848 67.4467 22.0828 67.4869L21.6245 67.4869C21.826 67.1268 22.0504 66.78 22.2963 66.4485L21.6857 65.5625 21.6857 65.4988ZM27.7354 68.1568C28.2242 68.2792 28.4685 68.422 28.4685 68.5845L28.4685 68.8899 28.1632 68.8899 27.8884 68.5845 27.5812 68.5845C27.4792 68.6049 27.4282 68.6559 27.4282 68.7375L27.4282 68.8905C28.1816 69.0326 28.5584 69.1958 28.5584 69.3794L28.5584 69.6235C28.5584 70.0104 28.3344 70.2036 27.8865 70.2042L27.5812 70.2042C27.3032 70.1959 27.0542 70.0302 26.9399 69.7765L26.9399 69.4712 27.3677 69.4712C27.3677 69.7153 27.5102 69.8377 27.7954 69.8377L27.8871 69.8377C27.9483 69.8377 28.0195 69.7663 28.1007 69.6242 28.1007 69.563 27.7546 69.3896 27.0623 69.1047L26.9986 68.9517 26.9986 68.5864C26.9986 68.4239 27.2429 68.2811 27.7316 68.1587Z" fill="#648AF2" transform="matrix(1.00364 0 0 1 -1.83797 -31.1746)"/></g></svg>