<?xml version="1.0" encoding="utf-8"?>
<!-- Generator: Adobe Illustrator 22.0.1, SVG Export Plug-In . SVG Version: 6.00 Build 0)  -->
<svg version="1.1" id="Layer_1" xmlns="http://www.w3.org/2000/svg" xmlns:xlink="http://www.w3.org/1999/xlink"
	viewBox="0 0 374.89473684210526 114.37323133106787" xml:space="preserve">
<title>Artboard 4</title>
<g id="SvgjsG5874" featurekey="pulpyG-0" transform="matrix(4.53880184641117,0,0,4.53880184641117,114.27671824287249,-0.9634014981839378)" fill="current"><path d="M2.86 20 c-0.84 0 -1.4267 -0.17334 -1.76 -0.52 s-0.5 -0.92 -0.5 -1.72 l0 -10.48 c0 -0.57334 0.16334 -1.0133 0.49 -1.32 s0.73 -0.46 1.21 -0.46 l3.82 0 l0.5 2.7 l-2.78 0 c-0.17334 0 -0.26 0.09334 -0.26 0.28 l0 8.54 c0 0.18666 0.08666 0.28 0.26 0.28 l2.78 0 l-0.52 2.7 l-3.24 0 z M10.52 8.04 l0 5 l1.42 0 c0.18666 0 0.28 -0.1 0.28 -0.3 l0 -4.4 c0 -0.2 -0.09334 -0.3 -0.28 -0.3 l-1.42 0 z M15.080000000000002 14.1 c0 0.32 -0.11 0.61334 -0.33 0.88 s-0.54334 0.4 -0.97 0.4 l1.52 4.62 l-3 0 l-1.4 -4.62 l-0.38 0 l0 4.62 l-2.9 0 l0 -14.5 l5.5 0 c0.68 0 1.1767 0.17 1.49 0.51 s0.47 0.79666 0.47 1.37 l0 6.72 z M21.660000000000004 20 l-3.06 0 l0 -3.68 l-2.78 -10.82 l3 0 l1.3 6.84 l1.32 -6.84 l3 0 l-2.78 10.82 l0 3.68 z M28.12 8.04 l0 5.7 l1.44 0 c0.12 0 0.19666 -0.02334 0.23 -0.07 s0.05 -0.12332 0.05 -0.22998 l0 -5.12 c0 -0.18666 -0.08666 -0.28 -0.26 -0.28 l-1.46 0 z M30.94 5.5 c0.57334 0 1.0033 0.15998 1.29 0.47998 s0.43 0.74666 0.43 1.28 l0 6.94 c0 0.28 -0.03 0.53666 -0.09 0.77 s-0.17 0.43668 -0.33 0.61002 s-0.37334 0.31 -0.64 0.41 s-0.6 0.15 -1 0.15 l-2.48 0 l0 3.86 l-2.88 0 l0 -14.5 l5.7 0 z M39.580000000000005 5.5 l0.72 2.7 l-1.94 0 l0 11.8 l-2.96 0 l0 -11.8 l-1.94 0 l0.76 -2.7 l5.36 0 z M44.28000000000001 8.04 c-0.17334 0 -0.26 0.09334 -0.26 0.28 l0 8.84 c0 0.10666 0.01666 0.18332 0.05 0.22998 s0.11 0.07 0.23 0.07 l1.1 0 c0.12 0 0.19666 -0.02334 0.23 -0.07 s0.05 -0.12332 0.05 -0.22998 l0 -8.84 c0 -0.18666 -0.08666 -0.28 -0.26 -0.28 l-1.14 0 z M48.620000000000005 17.94 c0 0.28 -0.03334 0.54334 -0.1 0.79 s-0.18 0.46332 -0.34 0.64998 s-0.37334 0.33666 -0.64 0.45 s-0.6 0.17 -1 0.17 l-3.36 0 c-0.4 0 -0.73334 -0.05666 -1 -0.17 s-0.48 -0.26334 -0.64 -0.45 s-0.27334 -0.40332 -0.34 -0.64998 s-0.1 -0.51 -0.1 -0.79 l0 -10.56 c0 -0.57334 0.15666 -1.03 0.47 -1.37 s0.81 -0.51 1.49 -0.51 l3.6 0 c0.68 0 1.1767 0.17 1.49 0.51 s0.47 0.79666 0.47 1.37 l0 10.56 z M55.36000000000001 12.440000000000001 l2.06 7.56 l-2.94 0 l-1.12 -5.1 l-1.1 5.1 l-2.94 0 l2.06 -7.56 l-1.98 -6.94 l2.88 0 l1.08 5.1 l1.12 -5.1 l2.86 0 z"></path></g>
<g id="SvgjsG5873" featurekey="0LeO0L-0" transform="matrix(8.172865825176926,0,0,8.172865825176926,-2.872828382145951,-49.086232488959716)" fill="current"><path d="M5.459 6.006 c1.9531 0 3.1836 0.60872 3.6914 1.8262 c0.14323 0.29948 0.21484 0.49805 0.21484 0.5957 l-1.2305 0 l0 0.37109 l1.3184 0 l0 -0.019531 c0 -0.065107 -0.029297 -0.18229 -0.087891 -0.35156 l2.2559 0 l0 0.37109 l-2.1387 0 l0 0.029297 c0.11067 0.52083 0.1888 1.084 0.23438 1.6895 c0 0.032549 -0.85612 0.094395 -2.5684 0.18554 l0 -0.019531 c0 -1.556 -0.53386 -2.334 -1.6016 -2.334 l-0.27344 0 c-0.80078 0 -1.2891 0.33854 -1.4648 1.0156 c-0.14323 0.57292 -0.21484 1.3249 -0.21484 2.2559 l0 1.9043 l-0.019531 0.2832 l-0.88867 0 l0 0.44922 l0.88867 0 l0 3.3887 l3.7695 0 l0 -3.5254 l2.1582 0 l0 3.5254 l-1.2012 0 l0 2.168 l-2.5098 0 l0 0.18555 l-1.9531 0 l0 -0.18555 l-1.9824 0 l0 -1.084 l1.3184 0 l0 -0.46875 l-1.9727 0 l0 -1.6016 l-0.84961 0 l0 -1.9727 l0.44922 0 c-0.019531 -0.82031 -0.029297 -1.4648 -0.029297 -1.9336 c0 -2.1289 0.10417 -3.47 0.3125 -4.0234 c0.1888 -0.63802 0.5013 -1.1882 0.9375 -1.6504 c0.77474 -0.71614 1.9206 -1.0742 3.4375 -1.0742 z M3.7598 16.9434 l0.11719 0 l0 0.48828 l0.2832 0 l0 0.14648 l-0.40039 0 c-0.026045 0 -0.039063 -0.016279 -0.039063 -0.048828 l0 -0.53711 c0 -0.032549 0.013018 -0.048828 0.039063 -0.048828 z M6.6992 16.9434 l0.14649 0.0000095367 c0.078125 0.065107 0.11719 0.12695 0.11719 0.18555 c0.013018 0 0.068359 -0.061846 0.16602 -0.18555 l0.11719 0 l0 0.048828 c-0.11067 0.14323 -0.16602 0.24414 -0.16602 0.30273 c0.019531 0 0.081377 0.084639 0.18555 0.25391 l0 0.029297 l-0.13672 0 l-0.16602 -0.18555 c-0.058594 0.11067 -0.10417 0.17252 -0.13672 0.18554 l-0.14648 0 c0.032549 -0.065107 0.10416 -0.17578 0.21483 -0.33203 l-0.19531 -0.2832 l0 -0.019531 z M8.6328 17.793 c0.15625 0.039063 0.23438 0.084629 0.23438 0.13671 l0 0.097656 l-0.097656 0 l-0.087891 -0.097656 l-0.097656 0 c-0.032549 0.0065136 -0.048828 0.022793 -0.048828 0.048838 l0 0.048828 c0.24089 0.045576 0.36133 0.097656 0.36133 0.15625 l0 0.078125 c0 0.1237 -0.071611 0.18555 -0.21484 0.18555 l-0.097656 0 c-0.084639 0 -0.153 -0.045576 -0.20508 -0.13672 l0 -0.097656 l0.13672 0 c0 0.078125 0.045576 0.11719 0.13672 0.11719 l0.029297 0 c0.019531 0 0.042314 -0.022783 0.068359 -0.068359 c0 -0.019531 -0.11067 -0.074873 -0.33203 -0.16602 l-0.019531 -0.048828 l0 -0.11719 c0 -0.05208 0.078125 -0.097656 0.23438 -0.13672 z"></path></g>
</svg>
